<svg width="113" height="113" viewBox="0 0 113 113" fill="none" xmlns="http://www.w3.org/2000/svg">
<path d="M110.145 70.0189L99.2686 67.9445L99.5414 66.5143L107.651 68.0611L100.231 62.8995L100.423 61.8936L109.241 59.8129L101.115 58.263L101.388 56.8328L112.264 58.9073L111.97 60.4475L102.213 62.7563L110.435 68.4944L110.145 70.0189Z" fill="black"/>
<path d="M95.224 77.6587C95.7633 76.7757 96.4601 76.0952 97.3146 75.6171C98.1781 75.1446 99.1092 74.9196 100.108 74.9421C101.11 74.9793 102.075 75.2814 103.004 75.8486C103.932 76.4157 104.637 77.1338 105.119 78.0028C105.604 78.8866 105.829 79.8177 105.794 80.7961C105.768 81.7801 105.485 82.7136 104.946 83.5966C104.401 84.4887 103.697 85.171 102.833 85.6435C101.979 86.1216 101.055 86.3448 100.062 86.3132C99.0691 86.2816 98.1037 85.9794 97.1661 85.4068C96.2285 84.8341 95.5189 84.1132 95.0373 83.2442C94.5557 82.3751 94.3279 81.4485 94.3539 80.4645C94.3891 79.4861 94.6791 78.5508 95.224 77.6587ZM96.3027 78.3176C95.8968 78.9821 95.6874 79.6728 95.6744 80.3899C95.6559 81.116 95.8416 81.8044 96.2317 82.455C96.6161 83.1148 97.1861 83.6754 97.9417 84.1369C98.7063 84.6039 99.4654 84.855 100.219 84.8903C100.976 84.9401 101.67 84.7956 102.302 84.4566C102.934 84.1177 103.456 83.6114 103.867 82.9378C104.279 82.2642 104.491 81.5688 104.504 80.8518C104.517 80.1348 104.331 79.4464 103.947 78.7866C103.566 78.1415 102.993 77.5855 102.228 77.1184C101.473 76.657 100.717 76.4013 99.9595 76.3514C99.197 76.3107 98.4998 76.4598 97.8678 76.7987C97.2302 77.1467 96.7085 77.653 96.3027 78.3176Z" fill="black"/>
<path d="M85.9693 89.3513C86.7715 88.6978 87.6549 88.2877 88.6197 88.1209C89.5912 87.9624 90.5441 88.0597 91.4785 88.413C92.4113 88.7812 93.2213 89.3871 93.9085 90.2306C94.5957 91.0742 95.0219 91.9858 95.1871 92.9656C95.3509 93.9603 95.2535 94.9133 94.8951 95.8244C94.5434 96.7438 93.9664 97.5302 93.1642 98.1836C92.3538 98.8439 91.4628 99.2532 90.4913 99.4118C89.5266 99.5786 88.5811 99.482 87.655 99.122C86.7289 98.762 85.9189 98.1561 85.225 97.3043C84.5311 96.4525 84.1015 95.5367 83.9363 94.557C83.771 93.5772 83.8642 92.6277 84.2159 91.7083C84.5744 90.7972 85.1588 90.0115 85.9693 89.3513ZM86.7676 90.3313C86.1639 90.8231 85.7367 91.405 85.4861 92.0769C85.2272 92.7555 85.1736 93.4665 85.3251 94.2098C85.4683 94.9599 85.8195 95.6781 86.3787 96.3645C86.9446 97.0592 87.577 97.5484 88.2758 97.8321C88.9732 98.1308 89.6762 98.2253 90.3849 98.1158C91.0936 98.0062 91.7539 97.7022 92.3659 97.2037C92.9779 96.7051 93.4092 96.1199 93.6598 95.448C93.9104 94.7761 93.9641 94.0651 93.8208 93.315C93.6761 92.58 93.3207 91.8651 92.7548 91.1704C92.1957 90.484 91.5674 89.9915 90.8701 89.6928C90.1645 89.4008 89.4573 89.3096 88.7486 89.4192C88.0316 89.5355 87.3713 89.8395 86.7676 90.3313Z" fill="black"/>
<path d="M78.6845 107.317C77.5428 107.736 76.4774 107.882 75.4883 107.757C74.4928 107.644 73.6297 107.274 72.899 106.644C72.1582 106.018 71.5914 105.169 71.1984 104.098C70.8055 103.026 70.6893 102.012 70.8499 101.056C71.0041 100.113 71.4247 99.2772 72.1117 98.5481C72.7924 97.8327 73.7035 97.2657 74.8452 96.8471L78.105 95.6518L81.9442 106.122L78.6845 107.317ZM75.2583 97.9738C73.9063 98.4695 73.0052 99.2033 72.5549 100.175C72.1082 101.157 72.1218 102.294 72.5955 103.586C73.0729 104.887 73.8061 105.772 74.7952 106.238C75.7744 106.709 76.9349 106.698 78.2768 106.206L80.1696 105.512L77.1511 97.2797L75.2583 97.9738Z" fill="black"/>
<path d="M43.6183 110.267L45.6095 99.3756L47.0417 99.6374L45.557 107.759L50.6617 100.299L51.6691 100.483L53.8171 109.285L55.3048 101.148L56.7371 101.41L54.7458 112.301L53.2034 112.019L50.8201 102.28L45.145 110.546L43.6183 110.267Z" fill="black"/>
<path d="M35.8492 95.3795C36.7361 95.9123 37.4218 96.6041 37.9061 97.455C38.3849 98.3151 38.6167 99.2445 38.6016 100.243C38.5718 101.246 38.2768 102.213 37.7165 103.146C37.1562 104.079 36.4434 104.789 35.5778 105.277C34.6977 105.769 33.7683 106 32.7896 105.972C31.8054 105.954 30.8699 105.678 29.9829 105.145C29.0868 104.607 28.3994 103.908 27.9206 103.048C27.4362 102.197 27.2062 101.275 27.2305 100.281C27.2548 99.2879 27.5499 98.3204 28.1156 97.3785C28.6814 96.4367 29.397 95.7219 30.2625 95.2339C31.128 94.7459 32.0529 94.5113 33.037 94.5301C34.0157 94.5581 34.9531 94.8412 35.8492 95.3795ZM35.1983 96.463C34.5308 96.0621 33.8385 95.8577 33.1214 95.85C32.3952 95.8368 31.7082 96.0277 31.0604 96.4224C30.4035 96.8117 29.8471 97.3859 29.3912 98.1448C28.9298 98.9129 28.6842 99.6737 28.6546 100.427C28.6103 101.185 28.7599 101.878 29.1035 102.508C29.4471 103.137 29.9572 103.655 30.6338 104.061C31.3105 104.468 32.0073 104.675 32.7244 104.683C33.4415 104.69 34.1285 104.5 34.7854 104.11C35.4277 103.725 35.9796 103.148 36.441 102.38C36.8969 101.621 37.147 100.863 37.1913 100.105C37.2264 99.3425 37.0722 98.6464 36.7286 98.0169C36.3759 97.382 35.8658 96.864 35.1983 96.463Z" fill="black"/>
<path d="M24.1397 86.2432C24.799 87.0406 25.2155 87.9211 25.3893 88.8846C25.5549 89.8549 25.4645 90.8085 25.1181 91.7455C24.7567 92.681 24.1567 93.4953 23.3182 94.1886C22.4797 94.8819 21.5711 95.3148 20.5926 95.4872C19.5991 95.6581 18.6454 95.5677 17.7318 95.2159C16.8099 94.8709 16.0192 94.2997 15.3599 93.5023C14.6939 92.6967 14.278 91.8087 14.1124 90.8384C13.9386 89.8749 14.0283 88.9288 14.3815 88.0001C14.7347 87.0714 15.3347 86.257 16.1814 85.5569C17.0282 84.8568 17.9408 84.4206 18.9193 84.2482C19.8979 84.0758 20.8481 84.1621 21.77 84.5071C22.6837 84.8589 23.4736 85.4376 24.1397 86.2432ZM23.1655 87.0487C22.6693 86.4485 22.0844 86.0256 21.4107 85.7799C20.7301 85.526 20.0188 85.4775 19.2766 85.6344C18.5276 85.7831 17.8119 86.1395 17.1296 86.7037C16.4391 87.2746 15.9545 87.9106 15.6759 88.6115C15.3823 89.311 15.2929 90.0146 15.4076 90.7225C15.5223 91.4304 15.8311 92.0886 16.3341 92.6969C16.8371 93.3052 17.4254 93.7322 18.0991 93.9779C18.7729 94.2236 19.4842 94.2721 20.2332 94.1234C20.9672 93.9733 21.6795 93.6128 22.37 93.0418C23.0523 92.4777 23.5403 91.8459 23.8339 91.1464C24.1207 90.4387 24.2067 89.7309 24.092 89.023C23.9705 88.3069 23.6617 87.6488 23.1655 87.0487Z" fill="black"/>
<path d="M6.12116 79.0965C5.69397 77.958 5.53958 76.8938 5.65798 75.9037C5.76266 74.9075 6.12703 74.0416 6.75111 73.3061C7.37144 72.5607 8.21589 71.9875 9.28448 71.5865C10.3531 71.1856 11.3661 71.0618 12.3237 71.2152C13.2676 71.3623 14.1066 71.7766 14.8408 72.4581C15.5613 73.1334 16.1351 74.0403 16.5623 75.1788L17.7821 78.4294L7.34089 82.3472L6.12116 79.0965ZM15.4388 75.6003C14.9329 74.2521 14.1924 73.3565 13.2173 72.9135C12.2322 72.4742 11.0955 72.4963 9.80722 72.9797C8.50894 73.4668 7.63019 74.2067 7.17095 75.1993C6.70798 76.1819 6.72755 77.3424 7.22969 78.6806L7.93792 80.5681L16.1471 77.4878L15.4388 75.6003Z" fill="black"/>
<path d="M2.89618 44.116L13.8026 46.0238L13.5517 47.458L5.41918 46.0354L12.9176 51.0829L12.7412 52.0916L3.95603 54.307L12.1043 55.7323L11.8534 57.1666L0.947025 55.2588L1.21721 53.7142L10.9381 51.2564L2.62876 45.6447L2.89618 44.116Z" fill="black"/>
<path d="M17.6366 36.3375C17.1104 37.2284 16.4236 37.9191 15.5763 38.4097C14.7198 38.8948 13.7921 39.1335 12.7932 39.1257C11.7906 39.1032 10.8209 38.8153 9.88415 38.262C8.94739 37.7086 8.23184 37.0009 7.73751 36.139C7.23942 35.2625 7.00075 34.3348 7.0215 33.356C7.03307 32.3717 7.30198 31.4341 7.82824 30.5433C8.35992 29.6433 9.054 28.9507 9.91048 28.4656C10.7578 27.975 11.6782 27.7382 12.6716 27.7552C13.6651 27.7722 14.6348 28.0601 15.5807 28.6189C16.5267 29.1777 17.2468 29.888 17.7411 30.75C18.2355 31.6119 18.4768 32.535 18.4653 33.5192C18.4445 34.4981 18.1683 35.4375 17.6366 36.3375ZM16.5483 35.6946C16.9444 35.0242 17.1436 34.3304 17.146 33.6133C17.1539 32.887 16.958 32.2014 16.5585 31.5566C16.1643 30.9025 15.5862 30.3503 14.8239 29.9C14.0524 29.4443 13.2898 29.2044 12.5359 29.1803C11.7783 29.1415 11.086 29.2963 10.4591 29.6445C9.8322 29.9927 9.318 30.5066 8.91653 31.1862C8.51505 31.8658 8.31311 32.5642 8.31069 33.2813C8.30828 33.9984 8.50413 34.684 8.89826 35.3381C9.28862 35.9775 9.86953 36.5251 10.641 36.9808C11.4032 37.4311 12.1632 37.6756 12.9208 37.7144C13.6838 37.7439 14.3788 37.5846 15.0057 37.2364C15.6381 36.879 16.1523 36.3651 16.5483 35.6946Z" fill="black"/>
<path d="M26.6576 24.4987C25.865 25.1638 24.9876 25.5867 24.0254 25.7676C23.0563 25.9402 22.1021 25.8568 21.1627 25.5172C20.2246 25.1626 19.4058 24.5685 18.7065 23.7351C18.0071 22.9016 17.5676 21.9963 17.3881 21.019C17.2099 20.0268 17.2934 19.0725 17.6385 18.1563C17.9768 17.2319 18.5422 16.4372 19.3348 15.7721C20.1356 15.1001 21.0205 14.6778 21.9896 14.5052C22.9518 14.3243 23.8985 14.4071 24.8298 14.7536C25.761 15.1 26.5798 15.6941 27.286 16.5357C27.9922 17.3773 28.4351 18.2867 28.6146 19.264C28.7941 20.2412 28.7147 21.1921 28.3765 22.1164C28.0313 23.0327 27.4584 23.8267 26.6576 24.4987ZM25.8451 23.5304C26.4416 23.0299 26.8603 22.4419 27.101 21.7664C27.35 21.084 27.3933 20.3723 27.231 19.6313C27.0769 18.8834 26.7152 18.1704 26.1461 17.4922C25.5702 16.8058 24.9308 16.3259 24.2278 16.0524C23.5262 15.7639 22.8219 15.6796 22.1149 15.7994C21.4078 15.9193 20.752 16.2329 20.1473 16.7403C19.5427 17.2477 19.1199 17.8392 18.8791 18.5147C18.6384 19.1901 18.595 19.9018 18.7492 20.6497C18.9046 21.3826 19.2704 22.0922 19.8463 22.7786C20.4154 23.4568 21.0508 23.9401 21.7524 24.2286C22.4621 24.5103 23.1705 24.5912 23.8776 24.4713C24.5928 24.3446 25.2486 24.031 25.8451 23.5304Z" fill="black"/>
<path d="M33.7356 6.34466C34.8709 5.90894 35.934 5.74657 36.9248 5.85755C37.9219 5.95474 38.7905 6.31261 39.5306 6.93115C40.2806 7.54587 40.8602 8.386 41.2691 9.45155C41.6781 10.5171 41.8095 11.5292 41.6633 12.4879C41.5232 13.4329 41.1152 14.275 40.4393 15.0143C39.7694 15.7398 38.8669 16.3204 37.7316 16.7561L34.4902 18.0002L30.4942 7.58875L33.7356 6.34466ZM37.3016 15.6358C38.646 15.1198 39.536 14.3727 39.9717 13.3942C40.4036 12.4059 40.373 11.2694 39.8799 9.98473C39.3831 8.69014 38.6366 7.81696 37.6406 7.36519C36.6545 6.9096 35.4943 6.93788 34.1599 7.45004L32.2777 8.17241L35.4195 16.3582L37.3016 15.6358Z" fill="black"/>
<path d="M68.6571 2.81807L66.8329 13.7388L65.3968 13.4989L66.7571 5.35569L61.7671 12.8925L60.7571 12.7238L58.4745 3.95592L57.1116 12.1149L55.6755 11.875L57.4997 0.954296L59.0463 1.21264L61.5784 10.9144L67.1263 2.56236L68.6571 2.81807Z" fill="black"/>
<path d="M76.5875 17.4843C75.6929 16.9646 74.9971 16.2829 74.5003 15.4392C74.0089 14.5864 73.7634 13.6605 73.7638 12.6615C73.7789 11.6588 74.0596 10.687 74.6061 9.74616C75.1526 8.80535 75.8549 8.08461 76.7132 7.58395C77.586 7.07942 78.5119 6.83392 79.4909 6.84746C80.4752 6.85178 81.4147 7.11378 82.3094 7.63346C83.2133 8.1585 83.911 8.84746 84.4024 9.70035C84.8992 10.544 85.1428 11.4626 85.1331 12.4562C85.1234 13.4497 84.8427 14.4215 84.2909 15.3716C83.739 16.3216 83.034 17.0469 82.1757 17.5476C81.3175 18.0483 80.3962 18.2964 79.4119 18.2921C78.4329 18.2786 77.4915 18.0093 76.5875 17.4843ZM77.2224 16.3913C77.8957 16.7824 78.591 16.9765 79.3081 16.9736C80.0344 16.9761 80.7186 16.7752 81.3605 16.3709C82.0116 15.972 82.5595 15.3897 83.0042 14.6242C83.4542 13.8494 83.6885 13.085 83.7071 12.331C83.7402 11.5731 83.5804 10.882 83.2276 10.2576C82.8747 9.63331 82.3571 9.12291 81.6745 8.72645C80.992 8.33 80.2921 8.1332 79.575 8.13607C78.8579 8.13893 78.1738 8.33983 77.5226 8.73876C76.8861 9.13383 76.3428 9.71875 75.8928 10.4935C75.4481 11.2591 75.2092 12.0208 75.176 12.7787C75.1521 13.5419 75.3166 14.2357 75.6694 14.8601C76.0314 15.4898 76.5491 16.0002 77.2224 16.3913Z" fill="black"/>
<path d="M88.5567 26.459C87.8858 25.6713 87.4565 24.797 87.2687 23.8361C87.089 22.8683 87.1655 21.9134 87.4982 20.9716C87.846 20.0309 88.4341 19.2079 89.2624 18.5025C90.0907 17.797 90.9928 17.351 91.9688 17.1644C92.9597 16.979 93.9146 17.0555 94.8333 17.394C95.7601 17.7255 96.5589 18.2851 97.2298 19.0729C97.9075 19.8687 98.3363 20.7505 98.516 21.7183C98.7038 22.6792 98.6279 23.6265 98.2882 24.5603C97.9485 25.494 97.3605 26.317 96.524 27.0294C95.6876 27.7417 94.7814 28.1912 93.8055 28.3778C92.8296 28.5644 91.8782 28.492 90.9514 28.1604C90.0326 27.822 89.2344 27.2548 88.5567 26.459ZM89.519 25.6395C90.0238 26.2323 90.6149 26.6466 91.2921 26.8825C91.9763 27.1265 92.6883 27.1646 93.4281 26.9969C94.1748 26.8373 94.8852 26.4705 95.5593 25.8965C96.2414 25.3156 96.7167 24.6727 96.985 23.9678C97.2684 23.2641 97.3476 22.5592 97.2226 21.853C97.0976 21.1469 96.7792 20.4933 96.2674 19.8924C95.7557 19.2914 95.1612 18.873 94.4839 18.6372C93.8067 18.4013 93.0947 18.3631 92.348 18.5227C91.6162 18.6835 90.9093 19.0544 90.2272 19.6353C89.5531 20.2093 89.0744 20.8482 88.791 21.5519C88.5145 22.2637 88.4388 22.9727 88.5638 23.6788C88.6957 24.3931 89.0141 25.0466 89.519 25.6395Z" fill="black"/>
<path d="M106.764 33.4162C107.208 34.5482 107.378 35.61 107.275 36.6017C107.185 37.5994 106.834 38.4707 106.221 39.2154C105.612 39.9701 104.776 40.5559 103.713 40.9728C102.651 41.3897 101.64 41.5287 100.68 41.3897C99.7341 41.2568 98.8889 40.8551 98.1446 40.1847C97.414 39.5203 96.8267 38.6221 96.3825 37.4901L95.1141 34.2581L105.495 30.1842L106.764 33.4162ZM97.4995 37.0518C98.0256 38.3923 98.7794 39.2767 99.7611 39.705C100.753 40.1294 101.889 40.0903 103.17 39.5876C104.461 39.0811 105.328 38.3281 105.772 37.3287C106.221 36.3393 106.184 35.1793 105.662 33.8488L104.925 31.9721L96.7631 35.1751L97.4995 37.0518Z" fill="black"/>
</svg>
