<svg width="26" height="26" viewBox="0 0 26 26" fill="none" xmlns="http://www.w3.org/2000/svg">
<path d="M13 25C19.6274 25 25 19.6274 25 13C25 6.37258 19.6274 1 13 1C6.37258 1 1 6.37258 1 13C1 19.6274 6.37258 25 13 25Z" stroke="black" stroke-width="1.5"/>
<path d="M5.27017 14.3282C6.14633 17.7657 9.26284 20.3077 12.9731 20.3077C16.7846 20.3077 19.9695 17.625 20.7427 14.0448" stroke="black" stroke-width="1.5" stroke-linecap="round"/>
<path d="M10.1263 10.9338C10.8061 10.9338 11.3571 10.3828 11.3571 9.70307C11.3571 9.02333 10.8061 8.47229 10.1263 8.47229C9.44656 8.47229 8.89551 9.02333 8.89551 9.70307C8.89551 10.3828 9.44656 10.9338 10.1263 10.9338Z" fill="black"/>
<path d="M16.284 10.9338C16.9638 10.9338 17.5148 10.3828 17.5148 9.70307C17.5148 9.02333 16.9638 8.47229 16.284 8.47229C15.6043 8.47229 15.0532 9.02333 15.0532 9.70307C15.0532 10.3828 15.6043 10.9338 16.284 10.9338Z" fill="black"/>
</svg>
